<?xml version="1.0" encoding="UTF-8"?>
<!DOCTYPE svg PUBLIC "-//W3C//DTD SVG 1.1//EN" "http://www.w3.org/Graphics/SVG/1.1/DTD/svg11.dtd">
<!-- Creator: CorelDRAW 2018 (64-Bit) -->
<svg xmlns="http://www.w3.org/2000/svg" xml:space="preserve" width="200px" height="200px" version="1.1" style="shape-rendering:geometricPrecision; text-rendering:geometricPrecision; image-rendering:optimizeQuality; fill-rule:evenodd; clip-rule:evenodd"
viewBox="0 0 8.29 8.29"
 xmlns:xlink="http://www.w3.org/1999/xlink">
 <defs>
  <style type="text/css">
   <![CDATA[
    .fil0 {fill:none}
    .fil1 {fill:#333333;fill-rule:nonzero}
   ]]>
  </style>
 </defs>
 <g id="Layer_x0020_1">
  <metadata id="CorelCorpID_0Corel-Layer"/>
  <g id="_1664841080320">
   <path class="fil0" d="M4.15 0c-2.29,0 -4.15,1.86 -4.15,4.15 0,2.29 1.86,4.14 4.15,4.14 2.29,0 4.14,-1.85 4.14,-4.14 0,-2.29 -1.85,-4.15 -4.14,-4.15z"/>
   <path class="fil1" d="M4.15 2.97c0.65,0 1.17,0.53 1.17,1.18 0,0.65 -0.52,1.17 -1.17,1.17 -0.65,0 -1.18,-0.52 -1.18,-1.17 0,-0.65 0.53,-1.18 1.18,-1.18zm-1.5 1.18c0,0.48 -0.39,0.87 -0.87,0.87 -0.48,0 -0.88,-0.39 -0.88,-0.87 0,-0.24 0.1,-0.46 0.26,-0.62 0.16,-0.16 0.38,-0.26 0.62,-0.26 0.48,0 0.87,0.4 0.87,0.88zm-0.37 0c0,-0.28 -0.22,-0.51 -0.5,-0.51 -0.28,0 -0.51,0.23 -0.51,0.51 0,0.28 0.23,0.5 0.51,0.5 0.28,0 0.5,-0.22 0.5,-0.5zm1.87 1.49c0.48,0 0.87,0.4 0.87,0.88 0,0.48 -0.39,0.87 -0.87,0.87 -0.24,0 -0.46,-0.1 -0.62,-0.25 -0.16,-0.16 -0.26,-0.38 -0.26,-0.62 0,-0.48 0.4,-0.88 0.88,-0.88zm0 0.37c-0.28,0 -0.51,0.23 -0.51,0.51 0,0.28 0.23,0.5 0.51,0.5 0.28,0 0.5,-0.22 0.5,-0.5 0,-0.28 -0.22,-0.51 -0.5,-0.51zm3.24 -1.86c0,0.48 -0.39,0.87 -0.87,0.87 -0.48,0 -0.88,-0.39 -0.88,-0.87 0,-0.48 0.4,-0.88 0.88,-0.88 0.48,0 0.87,0.4 0.87,0.88zm-0.37 0c0,-0.28 -0.22,-0.51 -0.5,-0.51 -0.28,0 -0.51,0.23 -0.51,0.51 0,0.28 0.23,0.5 0.51,0.5 0.28,0 0.5,-0.22 0.5,-0.5zm-2.87 -3.25c0.48,0 0.87,0.4 0.87,0.88 0,0.48 -0.39,0.87 -0.87,0.87 -0.48,0 -0.88,-0.39 -0.88,-0.87 0,-0.48 0.4,-0.88 0.88,-0.88zm0 0.37c-0.28,0 -0.51,0.23 -0.51,0.51 0,0.28 0.23,0.5 0.51,0.5 0.28,0 0.5,-0.22 0.5,-0.5 0,-0.28 -0.22,-0.51 -0.5,-0.51zm0 2.07c-0.45,0 -0.81,0.36 -0.81,0.81 0,0.44 0.36,0.8 0.81,0.8 0.44,0 0.8,-0.36 0.8,-0.8 0,-0.45 -0.36,-0.81 -0.8,-0.81z"/>
  </g>
 </g>
</svg>
