<?xml version="1.0" encoding="UTF-8"?>
<!DOCTYPE svg PUBLIC "-//W3C//DTD SVG 1.1//EN" "http://www.w3.org/Graphics/SVG/1.1/DTD/svg11.dtd">
<!-- Creator: CorelDRAW 2018 (64-Bit) -->
<svg xmlns="http://www.w3.org/2000/svg" xml:space="preserve" width="200px" height="200px" version="1.1" style="shape-rendering:geometricPrecision; text-rendering:geometricPrecision; image-rendering:optimizeQuality; fill-rule:evenodd; clip-rule:evenodd"
viewBox="0 0 7.5 7.5"
 xmlns:xlink="http://www.w3.org/1999/xlink">
 <defs>
  <style type="text/css">
   <![CDATA[
    .fil0 {fill:none}
    .fil1 {fill:#333333;fill-rule:nonzero}
   ]]>
  </style>
 </defs>
 <g id="Layer_x0020_1">
  <metadata id="CorelCorpID_0Corel-Layer"/>
  <g id="_1664845418912">
   <path class="fil0" d="M3.75 0c-2.07,0 -3.75,1.68 -3.75,3.75 0,2.07 1.68,3.75 3.75,3.75 2.07,0 3.75,-1.68 3.75,-3.75 0,-2.07 -1.68,-3.75 -3.75,-3.75z"/>
   <path class="fil1" d="M3.75 2.68c0.58,0 1.06,0.48 1.06,1.07 0,0.58 -0.48,1.06 -1.06,1.06 -0.59,0 -1.07,-0.48 -1.07,-1.06 0,-0.59 0.48,-1.07 1.07,-1.07zm0 2.42c0.43,0 0.79,0.35 0.79,0.79 0,0.43 -0.36,0.79 -0.79,0.79 -0.22,0 -0.42,-0.09 -0.56,-0.23 -0.14,-0.15 -0.23,-0.34 -0.23,-0.56 0,-0.44 0.35,-0.79 0.79,-0.79zm0 0.33c-0.25,0 -0.46,0.21 -0.46,0.46 0,0.25 0.21,0.45 0.46,0.45 0.25,0 0.45,-0.2 0.45,-0.45 0,-0.25 -0.2,-0.46 -0.45,-0.46zm0 -4.61c0.43,0 0.79,0.35 0.79,0.79 0,0.43 -0.36,0.79 -0.79,0.79 -0.44,0 -0.79,-0.36 -0.79,-0.79 0,-0.44 0.35,-0.79 0.79,-0.79zm0 0.33c-0.25,0 -0.46,0.2 -0.46,0.46 0,0.25 0.21,0.45 0.46,0.45 0.25,0 0.45,-0.2 0.45,-0.45 0,-0.26 -0.2,-0.46 -0.45,-0.46zm0 1.87c-0.4,0 -0.73,0.33 -0.73,0.73 0,0.4 0.33,0.73 0.73,0.73 0.4,0 0.73,-0.33 0.73,-0.73 0,-0.4 -0.33,-0.73 -0.73,-0.73z"/>
  </g>
 </g>
</svg>
