<?xml version="1.0" encoding="UTF-8"?>
<!DOCTYPE svg PUBLIC "-//W3C//DTD SVG 1.1//EN" "http://www.w3.org/Graphics/SVG/1.1/DTD/svg11.dtd">
<!-- Creator: CorelDRAW 2018 (64-Bit) -->
<svg xmlns="http://www.w3.org/2000/svg" xml:space="preserve" width="200px" height="200px" version="1.1" style="shape-rendering:geometricPrecision; text-rendering:geometricPrecision; image-rendering:optimizeQuality; fill-rule:evenodd; clip-rule:evenodd"
viewBox="0 0 9.28 9.28"
 xmlns:xlink="http://www.w3.org/1999/xlink">
 <defs>
  <style type="text/css">
   <![CDATA[
    .fil0 {fill:none}
    .fil1 {fill:#333333;fill-rule:nonzero}
   ]]>
  </style>
 </defs>
 <g id="Layer_x0020_1">
  <metadata id="CorelCorpID_0Corel-Layer"/>
  <g id="_1664834887536">
   <path class="fil0" d="M4.64 0c-2.56,0 -4.64,2.08 -4.64,4.64 0,2.57 2.08,4.64 4.64,4.64 2.57,0 4.64,-2.07 4.64,-4.64 0,-2.56 -2.07,-4.64 -4.64,-4.64z"/>
   <path class="fil1" d="M7.4 4.12c-0.62,1.06 -1.23,2.12 -1.84,3.18 -0.04,0.07 -0.07,0.11 -0.14,0.15 -0.18,0.11 -0.46,0.14 -0.8,0.08 -0.82,-0.16 -1.91,-0.79 -2.46,-1.43 -0.23,-0.26 -0.34,-0.51 -0.34,-0.73 0,-0.08 0.02,-0.13 0.06,-0.19 0.62,-1.07 1.23,-2.15 1.85,-3.21 0.14,-0.24 0.49,-0.29 0.93,-0.21 0.82,0.16 1.92,0.79 2.47,1.43 0.2,0.23 0.45,0.62 0.27,0.93zm-2.2 2.99c0.07,-0.11 -0.14,-0.36 -0.23,-0.46 -0.52,-0.59 -1.54,-1.15 -2.23,-1.29 -0.27,-0.05 -0.46,-0.05 -0.5,0.03 -0.04,0.07 0.05,0.23 0.23,0.44 0.49,0.57 1.5,1.15 2.23,1.29 0.26,0.05 0.45,0.05 0.5,-0.01zm-1.55 -4.18c0.1,0.01 0.2,0.02 0.31,0.04 0.82,0.16 1.92,0.79 2.47,1.43 0.08,0.08 0.14,0.16 0.19,0.25l0.43 -0.75c0.04,-0.07 -0.05,-0.23 -0.23,-0.44 -0.49,-0.57 -1.5,-1.15 -2.24,-1.29 -0.26,-0.05 -0.45,-0.06 -0.49,0.01l-0.44 0.75zm2.47 1.74c-0.49,-0.57 -1.5,-1.15 -2.24,-1.29 -0.09,-0.02 -0.43,-0.09 -0.5,0.02l-0.87 1.52c0.56,0.02 1.21,0.32 1.64,0.57 0.43,0.25 1.03,0.66 1.32,1.14l0.88 -1.51c0.06,-0.12 -0.16,-0.37 -0.23,-0.45z"/>
  </g>
 </g>
</svg>
