<?xml version="1.0" encoding="UTF-8"?>
<!DOCTYPE svg PUBLIC "-//W3C//DTD SVG 1.1//EN" "http://www.w3.org/Graphics/SVG/1.1/DTD/svg11.dtd">
<!-- Creator: CorelDRAW 2018 (64-Bit) -->
<svg xmlns="http://www.w3.org/2000/svg" xml:space="preserve" width="200px" height="200px" version="1.1" style="shape-rendering:geometricPrecision; text-rendering:geometricPrecision; image-rendering:optimizeQuality; fill-rule:evenodd; clip-rule:evenodd"
viewBox="0 0 6.84 6.84"
 xmlns:xlink="http://www.w3.org/1999/xlink">
 <defs>
  <style type="text/css">
   <![CDATA[
    .fil0 {fill:none}
    .fil1 {fill:#333333;fill-rule:nonzero}
   ]]>
  </style>
 </defs>
 <g id="Layer_x0020_1">
  <metadata id="CorelCorpID_0Corel-Layer"/>
  <g id="_1664830174432">
   <path class="fil0" d="M3.42 0c-1.89,0 -3.42,1.53 -3.42,3.42 0,1.89 1.53,3.42 3.42,3.42 1.89,0 3.42,-1.53 3.42,-3.42 0,-1.89 -1.53,-3.42 -3.42,-3.42z"/>
   <path class="fil1" d="M2.47 3.61l-0.43 -1.63c-0.07,-0.25 0.05,-0.5 0.3,-0.57 0.26,-0.07 0.49,0.09 0.56,0.34l0.21 0.81c0.18,-0.09 0.38,-0.03 0.51,0.1 0.17,-0.14 0.4,-0.12 0.56,0.02 0.26,-0.13 0.58,0.03 0.66,0.32l0.24 0.92c0.15,0.53 -0.09,1.18 -0.66,1.33l-0.62 0.17c-0.22,0.06 -0.45,0.01 -0.66,-0.07 -0.47,-0.2 -0.89,-0.67 -1.25,-1.02 -0.2,-0.19 -0.25,-0.49 -0.06,-0.7 0.18,-0.19 0.44,-0.18 0.64,-0.02zm-0.14 -1.71l0.57 2.12c0.04,0.15 -0.14,0.26 -0.25,0.16l-0.35 -0.32c-0.07,-0.06 -0.17,-0.11 -0.24,-0.02 -0.08,0.08 -0.03,0.2 0.04,0.27 0.32,0.31 0.75,0.78 1.16,0.96 0.15,0.06 0.31,0.09 0.46,0.05l0.63 -0.17c0.4,-0.1 0.54,-0.58 0.44,-0.95l-0.25 -0.93c-0.02,-0.08 -0.11,-0.15 -0.2,-0.12 -0.06,0.01 -0.06,0.04 -0.11,0.07 -0.07,0.04 -0.16,0.02 -0.21,-0.05 -0.03,-0.05 -0.08,-0.1 -0.15,-0.1 -0.06,0.01 -0.1,0.07 -0.12,0.12 -0.05,0.13 -0.23,0.13 -0.28,-0.01 -0.02,-0.07 -0.08,-0.15 -0.16,-0.16 -0.07,0 -0.11,0.05 -0.13,0.1 -0.06,0.14 -0.25,0.13 -0.29,-0.01l-0.29 -1.08c-0.02,-0.09 -0.09,-0.15 -0.18,-0.13 -0.09,0.03 -0.11,0.12 -0.09,0.2z"/>
  </g>
 </g>
</svg>
