<?xml version="1.0" encoding="UTF-8"?>
<!DOCTYPE svg PUBLIC "-//W3C//DTD SVG 1.1//EN" "http://www.w3.org/Graphics/SVG/1.1/DTD/svg11.dtd">
<!-- Creator: CorelDRAW 2018 (64-Bit) -->
<svg xmlns="http://www.w3.org/2000/svg" xml:space="preserve" width="200px" height="200px" version="1.1" style="shape-rendering:geometricPrecision; text-rendering:geometricPrecision; image-rendering:optimizeQuality; fill-rule:evenodd; clip-rule:evenodd"
viewBox="0 0 4.34 4.34"
 xmlns:xlink="http://www.w3.org/1999/xlink">
 <defs>
  <style type="text/css">
   <![CDATA[
    .fil0 {fill:none}
    .fil2 {fill:black}
    .fil5 {fill:#766A1A}
    .fil7 {fill:#766A1A}
    .fil6 {fill:#DDC831}
    .fil4 {fill:#FF9999}
    .fil1 {fill:#FFE31A}
    .fil3 {fill:white}
   ]]>
  </style>
 </defs>
 <g id="Layer_x0020_1">
  <metadata id="CorelCorpID_0Corel-Layer"/>
  <g id="_2419850746864">
   <polygon class="fil0" points="4.34,0 0,0 0,4.34 4.34,4.34 "/>
   <g>
    <path class="fil1" d="M2.17 1.05c0.98,0 1.81,0.51 1.81,1.46 0,1.23 -0.83,1.45 -1.81,1.45 -0.98,0 -1.81,-0.22 -1.81,-1.45 0,-0.95 0.83,-1.46 1.81,-1.46z"/>
    <g>
     <g>
      <path class="fil2" d="M2.94 1.91c0.16,0 0.3,0.17 0.3,0.37 0,0.21 -0.14,0.37 -0.3,0.37 -0.17,0 -0.31,-0.16 -0.31,-0.37 0,-0.2 0.14,-0.37 0.31,-0.37z"/>
      <path class="fil3" d="M2.85 2.01c-0.07,0 -0.13,0.06 -0.13,0.13 0,0.08 0.06,0.13 0.13,0.13 0.07,0 0.13,-0.05 0.13,-0.13 0,-0.07 -0.06,-0.13 -0.13,-0.13z"/>
      <path class="fil3" d="M3.02 2.39c-0.05,0 -0.09,0.03 -0.09,0.08 0,0.05 0.04,0.09 0.09,0.09 0.05,0 0.08,-0.04 0.08,-0.09 0,-0.05 -0.03,-0.08 -0.08,-0.08z"/>
     </g>
     <g>
      <path class="fil2" d="M1.41 1.91c0.16,0 0.3,0.17 0.3,0.37 0,0.21 -0.14,0.37 -0.3,0.37 -0.17,0 -0.31,-0.16 -0.31,-0.37 0,-0.2 0.14,-0.37 0.31,-0.37z"/>
      <path class="fil3" d="M1.32 2.01c-0.07,0 -0.13,0.06 -0.13,0.13 0,0.08 0.06,0.13 0.13,0.13 0.07,0 0.13,-0.05 0.13,-0.13 0,-0.07 -0.06,-0.13 -0.13,-0.13z"/>
      <path class="fil3" d="M1.49 2.39c-0.05,0 -0.09,0.03 -0.09,0.08 0,0.05 0.04,0.09 0.09,0.09 0.04,0 0.08,-0.04 0.08,-0.09 0,-0.05 -0.04,-0.08 -0.08,-0.08z"/>
     </g>
    </g>
    <g>
     <path class="fil2" d="M2.17 3.15c-0.05,0.06 -0.14,0.1 -0.22,0.1 -0.12,0 -0.21,-0.08 -0.26,-0.19l0 -0.02 0.02 -0.01 0.01 0.01c0.06,0.13 0.38,0.15 0.38,0.03 0,-0.03 -0.12,-0.05 -0.12,-0.15 0,-0.09 0.13,-0.11 0.19,-0.11 0.06,0 0.19,0.02 0.19,0.11 0,0.1 -0.12,0.12 -0.12,0.15 0,0.12 0.32,0.1 0.38,-0.03l0.01 -0.01 0.03 0.01 -0.01 0.02c-0.05,0.11 -0.14,0.19 -0.26,0.19 -0.08,0 -0.17,-0.04 -0.22,-0.1z"/>
     <path class="fil4" d="M2.17 3.02c0.07,0 0.12,-0.09 0.12,-0.1 0,0 0,-0.01 0,-0.01 -0.01,-0.02 -0.07,-0.04 -0.12,-0.04 -0.05,0 -0.12,0.02 -0.12,0.05 0,0.01 0.06,0.1 0.12,0.1z"/>
    </g>
    <g>
     <path class="fil1" d="M3.91 2.05l0.07 -1.62c-0.38,0.13 -0.77,0.47 -0.98,0.79 0.07,0.34 0.53,0.75 0.91,0.83z"/>
     <path class="fil5" d="M3.8 1.5l0.03 -0.78c0,-0.05 -0.05,-0.05 -0.07,-0.03 -0.2,0.12 -0.41,0.3 -0.55,0.48 0.13,-0.13 0.32,-0.26 0.48,-0.35 0.03,-0.03 0.06,0 0.07,0.04l0.04 0.64z"/>
     <path class="fil6" d="M3.34 1.05c0.2,0.02 0.34,0.09 0.44,0.21l-0.02 -0.4c-0.01,-0.04 -0.04,-0.07 -0.07,-0.04 -0.11,0.06 -0.24,0.15 -0.35,0.23z"/>
    </g>
    <g>
     <path class="fil1" d="M0.43 2.05l-0.07 -1.62c0.38,0.13 0.77,0.47 0.98,0.79 -0.07,0.34 -0.53,0.75 -0.91,0.83z"/>
     <path class="fil7" d="M0.54 1.5l-0.02 -0.78c-0.01,-0.05 0.04,-0.05 0.06,-0.03 0.2,0.12 0.41,0.3 0.55,0.48 -0.13,-0.13 -0.32,-0.26 -0.47,-0.35 -0.04,-0.03 -0.07,0 -0.07,0.04l-0.05 0.64z"/>
     <path class="fil6" d="M1 1.05c-0.2,0.02 -0.34,0.09 -0.44,0.21l0.03 -0.4c0,-0.04 0.03,-0.07 0.07,-0.04 0.1,0.06 0.23,0.15 0.34,0.23z"/>
    </g>
    <path class="fil2" d="M0.3 2.1c0.01,-0.02 0.01,-0.03 0.02,-0.05l-0.08 -1.79 0.16 0.06c0.36,0.13 0.73,0.43 0.96,0.74 0.26,-0.09 0.54,-0.13 0.81,-0.13 0.27,0 0.55,0.04 0.81,0.13 0.23,-0.31 0.6,-0.61 0.96,-0.74l0.16 -0.06 -0.08 1.79c0.01,0.02 0.01,0.03 0.02,0.05 0.03,0.13 0.05,0.27 0.05,0.41l0 0.01c0,0.45 -0.11,0.9 -0.48,1.2 -0.39,0.31 -0.96,0.36 -1.44,0.36 -0.48,0 -1.05,-0.05 -1.44,-0.36 -0.37,-0.3 -0.48,-0.75 -0.48,-1.2l0 -0.01c0,-0.14 0.02,-0.28 0.05,-0.41zm0.1 -1.62l0.06 1.29c0.06,-0.08 0.26,-0.35 0.64,-0.43 -0.22,0.12 -0.38,0.25 -0.51,0.47 -0.05,0.08 -0.08,0.16 -0.11,0.25 -0.05,0.14 -0.08,0.3 -0.08,0.45 0,1.17 0.74,1.42 1.77,1.42 1.03,0 1.77,-0.25 1.77,-1.42 0,-0.15 -0.03,-0.31 -0.08,-0.45 -0.03,-0.09 -0.06,-0.17 -0.11,-0.25 -0.13,-0.22 -0.29,-0.35 -0.51,-0.47 0.25,0.05 0.49,0.23 0.64,0.43l0.06 -1.29c-0.34,0.14 -0.69,0.44 -0.88,0.74l-0.02 0.02 -0.03 -0.01c-0.27,-0.1 -0.56,-0.14 -0.84,-0.14 -0.28,0 -0.57,0.04 -0.84,0.14l-0.03 0.01 -0.01 -0.02c-0.2,-0.3 -0.55,-0.6 -0.89,-0.74z"/>
   </g>
  </g>
 </g>
</svg>
